<svg width="16" height="16" viewBox="0 0 16 16" fill="none" xmlns="http://www.w3.org/2000/svg">
<path d="M15.6017 13.0781L12.4067 10.8182C12.1145 10.6233 11.8418 10.5455 11.5885 10.5844C11.2963 10.6429 11.1405 10.8377 11.1015 10.8962L10.2052 11.7924C9.97151 12.0261 9.65976 12.1626 9.34803 12.1626C8.6467 12.182 7.22459 11.9873 5.54915 10.4677C4.04905 8.79233 3.83475 7.37022 3.8543 6.66885C3.8543 6.33769 3.99074 6.04538 4.22448 5.81164L5.1207 4.91542C5.19856 4.87642 5.374 4.70112 5.43243 4.42838C5.49087 4.17508 5.413 3.90235 5.1987 3.61017L2.93868 0.415073C2.89968 0.337207 2.70494 0.0448916 2.37378 0.00589393C2.10105 -0.0331072 1.80889 0.122762 1.51657 0.434485C1.28283 0.648788 -2.00957 3.86318 1.90616 9.72712C2.2179 10.1947 3.01667 11.2467 3.8933 12.1233C4.69207 12.9415 5.62715 13.6429 6.03633 13.935C8.29621 15.513 10.1859 16 11.647 16C14.0822 16 15.4264 14.6363 15.5627 14.4999C15.8939 14.2077 16.0303 13.935 15.9913 13.6427C15.9718 13.3116 15.6795 13.1169 15.6016 13.0779L15.6017 13.0781Z" fill="#33BB83"/>
</svg>
