<svg width="123" height="28" viewBox="0 0 123 28" fill="none" xmlns="http://www.w3.org/2000/svg">
<mask id="mask0_422_203" style="mask-type:alpha" maskUnits="userSpaceOnUse" x="0" y="0" width="123" height="28">
<rect width="123" height="28" fill="#C4C4C4"/>
</mask>
<g mask="url(#mask0_422_203)">
<path d="M58.5324 11.9341C59.9814 10.7984 62.0186 10.7984 63.4676 11.9341L75.4761 21.3466C78.5509 23.7566 82.0667 25.5428 85.8263 26.605L105.188 32.0753C107.13 32.6239 107.13 35.3761 105.188 35.9247L85.8263 41.395C82.0667 42.4572 78.5509 44.2434 75.4761 46.6535L62.2338 57.0329C61.5093 57.6008 60.4907 57.6008 59.7662 57.0329L46.5239 46.6535C43.4491 44.2434 39.9333 42.4572 36.1737 41.395L16.8121 35.9247C14.8705 35.3761 14.8705 32.6239 16.8121 32.0753L36.1737 26.605C39.9333 25.5428 43.4491 23.7566 46.5239 21.3465L58.5324 11.9341Z" fill="#FDFFF8"/>
</g>
</svg>
