<svg width="32" height="32" viewBox="0 0 32 32" fill="none" xmlns="http://www.w3.org/2000/svg">
<path d="M16 0L17.6064 6.37311L21.1952 0.866924L20.6452 7.41634L25.8274 3.37375L23.1807 9.38973L29.3947 7.24883L24.9379 12.0795L31.5104 12.0722L25.7267 15.194L31.9454 17.3213L25.4613 18.3959L30.6524 22.4271L24.1707 21.3382L27.7716 26.8365L21.9947 23.702L23.6152 30.0716L19.1691 25.2312L18.6335 31.7818L16 25.76L13.3665 31.7818L12.8309 25.2312L8.38484 30.0716L10.0053 23.702L4.22842 26.8365L7.82926 21.3382L1.34763 22.4271L6.53865 18.3959L0.0546484 17.3213L6.27334 15.194L0.489595 12.0722L7.06205 12.0795L2.60534 7.24883L8.81933 9.38973L6.1726 3.37375L11.3548 7.41634L10.8048 0.866924L14.3936 6.37311L16 0Z" fill="#33BB83"/>
</svg>
