<svg width="32" height="32" viewBox="0 0 32 32" fill="none" xmlns="http://www.w3.org/2000/svg">
<path d="M14.2853 2.85599C15.0622 1.56196 16.9378 1.56196 17.7147 2.85599L18.1465 3.57523C20.6782 7.79207 24.2079 11.3218 28.4248 13.8535L29.144 14.2853C30.438 15.0622 30.438 16.9378 29.144 17.7147L28.4248 18.1465C24.2079 20.6782 20.6782 24.2079 18.1465 28.4248L17.7147 29.144C16.9378 30.438 15.0622 30.438 14.2853 29.144L13.8535 28.4248C11.3218 24.2079 7.79207 20.6782 3.57523 18.1465L2.85599 17.7147C1.56196 16.9378 1.56196 15.0622 2.85599 14.2853L3.57522 13.8535C7.79207 11.3218 11.3218 7.79207 13.8535 3.57522L14.2853 2.85599Z" fill="#9C45BA"/>
</svg>
