<svg width="46" height="35" viewBox="0 0 46 35" fill="none" xmlns="http://www.w3.org/2000/svg">
<path d="M13.1261 30.6765C13.1261 32.743 11.4424 34.4268 9.37579 34.4268C7.30922 34.4268 5.62546 32.743 5.62546 30.6765C5.62546 28.6099 7.30922 26.9261 9.37579 26.9261C11.4424 26.9261 13.1261 28.6099 13.1261 30.6765ZM37.2345 26.9261C35.1679 26.9261 33.4842 28.6099 33.4842 30.6765C33.4842 32.743 35.1679 34.4268 37.2345 34.4268C39.3011 34.4268 40.9849 32.743 40.9849 30.6765C40.9849 28.6099 39.3011 26.9261 37.2345 26.9261ZM25.0657 0.0625H1.18686C0.574519 0.0625 0.0390625 0.598502 0.0390625 1.2103V29.5281C0.0390625 30.1404 0.575065 30.6759 1.18686 30.6759H3.25343C3.25343 27.3082 6.00868 24.6299 9.29939 24.6299C12.6671 24.6299 15.3454 27.3852 15.3454 30.6759H24.9886C25.6009 30.6759 26.1364 30.1399 26.1364 29.5281L26.1374 1.2103C26.2138 0.598489 25.6783 0.0625 25.066 0.0625H25.0657ZM39.2246 10.2416H27.7444V30.7529H31.1883C31.1883 27.3852 33.9435 24.7069 37.2342 24.7069C40.525 24.7069 43.2802 27.4621 43.2802 30.7529H44.8108C45.4231 30.7529 45.9586 30.2169 45.9586 29.6051L45.9596 16.9771C45.9596 13.2268 42.8985 10.242 39.2244 10.242L39.2246 10.2416Z" fill="#FDFFF8"/>
</svg>
