<svg width="45" height="33" viewBox="0 0 45 33" fill="none" xmlns="http://www.w3.org/2000/svg">
<path d="M43.016 8.89941H38.5661V22.249C38.5661 23.4293 38.0973 24.561 37.263 25.3957C36.4283 26.23 35.2966 26.6989 34.1163 26.6989H8.90039V31.1487C8.90039 31.542 9.05667 31.9195 9.33478 32.1976C9.61289 32.4757 9.99034 32.632 10.3837 32.632H43.016C43.4093 32.632 43.7868 32.4757 44.0649 32.1976C44.343 31.9195 44.4993 31.542 44.4993 31.1487V10.3827C44.4993 9.98937 44.343 9.61192 44.0649 9.33381C43.7868 9.05569 43.4093 8.89941 43.016 8.89941Z" fill="#FDFFF8"/>
<path d="M19.2827 8.89941H16.3161C15.2563 8.89941 14.2769 9.46492 13.7469 10.3827C13.2172 11.3005 13.2172 12.4315 13.7469 13.3493C14.277 14.267 15.2564 14.8326 16.3161 14.8326H19.2827C20.3425 14.8326 21.3219 14.2671 21.8519 13.3493C22.3817 12.4315 22.3817 11.3005 21.8519 10.3827C21.3219 9.46493 20.3425 8.89941 19.2827 8.89941Z" fill="#FDFFF8"/>
<path d="M35.5989 22.2493V1.48329C35.5989 1.08995 35.4426 0.712503 35.1645 0.434391C34.8864 0.156279 34.5089 0 34.1156 0H1.48329C1.08995 0 0.712503 0.156279 0.434391 0.434391C0.156279 0.712503 0 1.08995 0 1.48329V22.2493C0 22.6426 0.156279 23.0201 0.434391 23.2982C0.712503 23.5763 1.08995 23.7326 1.48329 23.7326H34.1156C34.5089 23.7326 34.8864 23.5763 35.1645 23.2982C35.4426 23.0201 35.5989 22.6426 35.5989 22.2493ZM19.2827 17.7994H16.3162C14.1965 17.7994 12.2378 16.6684 11.178 14.8329C10.1181 12.9973 10.1181 10.7353 11.178 8.89972C12.2378 7.06417 14.1965 5.93315 16.3162 5.93315H19.2827C21.4024 5.93315 23.3611 7.06417 24.4209 8.89972C25.4807 10.7353 25.4807 12.9973 24.4209 14.8329C23.3611 16.6684 21.4024 17.7994 19.2827 17.7994Z" fill="#FDFFF8"/>
</svg>
