<svg width="173" height="173" viewBox="0 0 173 173" fill="none" xmlns="http://www.w3.org/2000/svg">
<path d="M100.421 2.21523C101.389 0.67159 103.749 1.12195 104.081 2.91381L107.81 23.0339C108.086 24.5242 109.855 25.1777 111.034 24.225L126.949 11.3627C128.366 10.2172 130.452 11.4094 130.184 13.212L127.178 33.4527C126.955 34.9518 128.416 36.1442 129.84 35.6259L149.069 28.628C150.782 28.0048 152.367 29.8097 151.529 31.4277L142.113 49.5956C141.416 50.9412 142.41 52.5433 143.926 52.5155L164.385 52.1404C166.207 52.107 167.121 54.329 165.802 55.5871L150.998 69.7133C149.901 70.7596 150.322 72.5977 151.764 73.0635L171.236 79.3519C172.97 79.9119 173.113 82.3102 171.458 83.072L152.869 91.6258C151.492 92.2594 151.292 94.1344 152.505 95.0432L168.881 107.314C170.339 108.406 169.696 110.721 167.882 110.904L147.523 112.959C146.015 113.111 145.218 114.819 146.07 116.073L157.574 132.995C158.599 134.503 157.238 136.483 155.464 136.067L135.541 131.4C134.065 131.054 132.756 132.411 133.155 133.873L138.541 153.615C139.021 155.373 137.091 156.804 135.548 155.835L118.22 144.951C116.936 144.145 115.257 145.004 115.16 146.516L113.844 166.936C113.727 168.755 111.437 169.482 110.292 168.064L97.4368 152.144C96.4847 150.965 94.6181 151.232 94.0348 152.631L86.1599 171.517C85.4586 173.199 83.0567 173.144 82.4342 171.431L75.4447 152.199C74.927 150.774 73.0748 150.421 72.0689 151.555L58.4882 166.861C57.2787 168.224 55.0251 167.392 54.9925 165.569L54.6263 145.11C54.5991 143.595 52.9621 142.659 51.6426 143.405L33.8277 153.472C32.2412 154.369 30.38 152.849 30.9408 151.115L37.2376 131.646C37.704 130.204 36.4594 128.787 34.9693 129.064L14.8508 132.801C13.0591 133.134 11.7921 131.093 12.8855 129.635L25.163 113.265C26.0723 112.052 25.3552 110.308 23.8559 110.086L3.61394 107.089C1.81123 106.822 1.27568 104.48 2.78323 103.456L19.7109 91.9589C20.9646 91.1073 20.8526 89.2251 19.5067 88.5283L1.33477 79.1206C-0.283587 78.2828 -0.0296459 75.8937 1.72867 75.4148L21.4722 70.0373C22.9345 69.639 23.4397 67.8223 22.393 66.7263L8.2603 51.9279C7.00167 50.61 8.01758 48.4328 9.83613 48.5508L30.2559 49.8754C31.7683 49.9735 32.8361 48.4193 32.2019 47.0427L23.64 28.4573C22.8775 26.8021 24.5453 25.0728 26.227 25.7748L45.1104 33.6579C46.509 34.2418 48.0235 33.1185 47.8706 31.6106L45.8073 11.2522C45.6236 9.43912 47.7625 8.34502 49.1252 9.55509L64.4257 23.1425C65.5589 24.1488 67.3561 23.5781 67.7012 22.1024L72.36 2.17703C72.775 0.402522 75.1532 0.0622135 76.0491 1.64916L86.1089 19.4684C86.8539 20.7882 88.739 20.832 89.5446 19.5482L100.421 2.21523Z" fill="#33BB83"/>
</svg>
