<svg width="32" height="32" viewBox="0 0 32 32" fill="none" xmlns="http://www.w3.org/2000/svg">
<path d="M30.3874 25.6723L24.3018 21.3678C23.7453 20.9966 23.2258 20.8483 22.7432 20.9226C22.1867 21.0339 21.8898 21.405 21.8156 21.5163L20.1085 23.2234C19.6633 23.6686 19.0695 23.9285 18.4757 23.9285C17.1398 23.9655 14.431 23.5946 11.2397 20.7003C8.38239 17.509 7.97421 14.8002 8.01145 13.4643C8.01145 12.8335 8.27132 12.2767 8.71655 11.8315L10.4236 10.1244C10.5719 10.0501 10.9061 9.71623 11.0174 9.19674C11.1287 8.71426 10.9804 8.19477 10.5722 7.63822L6.2674 1.55233C6.19311 1.40402 5.82219 0.847226 5.19142 0.772945C4.67193 0.698657 4.11543 0.99555 3.55862 1.58931C3.11341 1.9975 -3.15783 8.12016 4.30071 19.2896C4.89448 20.1802 6.41596 22.184 8.08573 23.8537C9.60721 25.4122 11.3883 26.7481 12.1677 27.3046C16.4722 30.3102 20.0716 31.2379 22.8546 31.2379C27.4931 31.2379 30.0535 28.6405 30.3132 28.3806C30.944 27.8241 31.2039 27.3046 31.1296 26.7478C31.0923 26.1172 30.5356 25.7463 30.3873 25.6721L30.3874 25.6723Z" fill="#FDFFF8"/>
</svg>
