<svg width="161" height="148" viewBox="0 0 161 148" fill="none" xmlns="http://www.w3.org/2000/svg">
<path d="M125.711 50.3503H125.52H120.751C114.742 50.5418 104.25 51.7861 95.8564 56.5723C85.746 63.7515 78.8785 75.334 78.3062 88.6395C77.6386 88.6395 76.9709 88.7352 76.3986 88.7352C75.7309 88.7352 75.0633 88.7352 74.491 88.6395C73.5372 68.3462 58.1807 51.7862 38.4367 49.2974C38.4367 48.5316 38.3414 47.7658 38.3414 47.0957C38.3414 46.3299 38.3414 45.5642 38.4367 44.8941C58.1807 42.3096 73.6325 25.8452 74.491 5.55194C75.1586 5.55194 75.8263 5.45621 76.3986 5.45621C77.0663 5.45621 77.6386 5.45621 78.2108 5.55194C78.6878 15.5071 82.6938 24.4094 88.8936 31.3014C89.9428 32.4501 90.992 33.5988 92.2319 34.556C92.3273 34.6517 92.4227 34.7475 92.5181 34.8432C100.912 41.1609 112.644 42.5967 119.702 42.9796V41.7352C119.702 18.666 101.102 0 78.2108 0C78.2108 0 76.9709 0 76.3986 0C75.7309 0 74.491 0 74.491 0C51.5994 0 33 18.666 33 41.6395V52.3605C33 75.334 51.5994 94 74.491 94C74.491 94 75.7309 94 76.3986 94C77.0663 94 78.3062 94 78.3062 94C100.149 94 117.794 77.057 119.511 55.6151H128V50.3503H125.711Z" fill="#33BB83"/>
<path d="M18.402 139.068C18.1419 141.929 15.3458 143.88 11.6394 143.88C6.82759 143.88 3.51133 140.498 3.51133 135.491C3.51133 130.484 6.8276 127.103 11.7695 127.103C15.3458 127.103 17.8818 128.859 17.8818 131.33C17.8818 131.85 17.7517 132.5 17.5567 133.085L17.4916 133.476H20.6128L20.6779 133.281C20.938 132.435 21.068 131.785 21.068 131.07C21.068 126.843 17.2315 123.917 11.6394 123.917C4.7468 123.917 0 128.664 0 135.491C0 142.319 4.7468 147.131 11.3793 147.131C16.9714 147.131 21.133 143.815 21.5882 139.133V138.808H18.402V139.068Z" fill="#084F32"/>
<path d="M41.6159 135.102C43.1765 133.996 44.0218 132.306 44.0218 130.355C44.0218 126.909 41.1607 124.308 37.3242 124.308H25.0996V146.806H38.2346C42.1361 146.806 44.9972 144.205 44.9972 140.629C44.9972 138.223 43.7617 136.207 41.6159 135.102ZM36.739 133.931H28.4809V127.234H36.739C38.9499 127.234 40.5755 128.664 40.5755 130.615C40.6405 132.566 39.0149 133.931 36.739 133.931ZM28.5459 136.792H37.6494C39.9903 136.792 41.6159 138.223 41.6159 140.304C41.6159 142.319 39.9903 143.815 37.6494 143.815H28.5459V136.792Z" fill="#084F32"/>
<path d="M87.0675 124.241H85.5069C83.9463 124.241 82.4508 125.087 81.6705 126.387L77.1187 132.824C76.6636 133.475 75.9483 133.865 75.103 133.865H72.9572V124.306H69.6409V133.8H67.4951C66.6498 133.8 65.9345 133.41 65.4793 132.759L60.9276 126.387C60.1473 125.087 58.6517 124.241 57.0911 124.241H55.5305V127.232H56.1808C57.0911 127.232 57.8064 127.622 58.2616 128.338L63.2034 135.23L57.5463 142.838C57.0911 143.554 56.3108 143.944 55.4655 143.944H54.9453V146.87H56.3108C57.8714 146.87 59.367 146.09 60.2123 144.789L65.4143 137.831C65.9345 137.181 66.7148 136.726 67.4951 136.726H69.7059V146.74H73.0222V136.791H75.233C76.0133 136.791 76.7286 137.181 77.2488 137.831L82.4508 144.789C83.3611 146.09 84.8567 146.87 86.3522 146.87H87.7178V143.944H87.1325C86.2872 143.944 85.5069 143.554 84.9867 142.838L79.3296 135.23L84.2715 128.338C84.6616 127.622 85.4419 127.232 86.2872 127.232H87.0025" fill="#084F32"/>
<path d="M46.8841 118H45.8438V119.04C45.8438 121.771 48.0546 123.982 50.7206 124.047V124.567C49.4201 125.023 48.4447 126.258 48.4447 127.754V146.806H51.891V125.998V124.307V124.047V123.657V123.072C51.891 120.276 49.6152 118 46.8841 118Z" fill="#084F32"/>
<path d="M114.573 138.743C114.313 141.409 111.712 143.229 108.201 143.229C103.649 143.229 100.593 140.043 100.593 135.361C100.593 130.615 103.714 127.428 108.396 127.428C111.777 127.428 114.118 129.054 114.118 131.33C114.118 131.85 113.988 132.435 113.858 132.955L113.663 133.606H117.174L117.304 133.281C117.565 132.435 117.695 131.785 117.695 131.07C117.695 126.843 113.858 123.917 108.396 123.917C101.634 123.917 96.8867 128.599 96.8867 135.361C96.8867 142.124 101.503 146.806 108.071 146.806C113.598 146.806 117.76 143.554 118.15 138.873L118.215 138.287H114.638L114.573 138.743Z" fill="#084F32"/>
<path d="M118.863 127.557H127.447V146.415H131.153V127.557H139.736V124.241H118.863V127.557Z" fill="#084F32"/>
<path d="M153.458 132.694H145.98V124.241H142.209V146.48H153.458C157.75 146.48 160.871 143.554 160.871 139.587C160.936 135.621 157.815 132.694 153.458 132.694ZM145.98 136.011H153.133C155.409 136.011 157.165 137.506 157.165 139.587C157.165 141.668 155.474 143.163 153.133 143.163H145.98V136.011Z" fill="#084F32"/>
<path d="M93.7666 124.242H90.3203V146.806H93.7666V124.242Z" fill="#084F32"/>
</svg>
