<svg width="48" height="48" viewBox="0 0 48 48" fill="none" xmlns="http://www.w3.org/2000/svg">
<g clip-path="url(#clip0_454_1155)">
<path d="M47.3404 24.5481C47.3404 22.9302 47.2092 21.3036 46.9294 19.712H24.4805V28.8769H37.3359C36.8025 31.8328 35.0884 34.4476 32.5785 36.1092V42.0559H40.2481C44.7518 37.9107 47.3404 31.7891 47.3404 24.5481Z" fill="#748745"/>
<path d="M24.4812 47.8015C30.9001 47.8015 36.3134 45.6939 40.2575 42.0559L32.5879 36.1092C30.4541 37.5609 27.6994 38.3829 24.4899 38.3829C18.2808 38.3829 13.0162 34.194 11.1273 28.5621H3.21289V34.6924C7.25316 42.7293 15.4824 47.8015 24.4812 47.8015Z" fill="#92A660"/>
<path d="M11.119 28.5621C10.1221 25.6062 10.1221 22.4055 11.119 19.4496V13.3192H3.21337C-0.162269 20.0443 -0.162269 27.9674 3.21337 34.6924L11.119 28.5621Z" fill="#C0D58D"/>
<path d="M24.4812 9.61999C27.8743 9.56752 31.1537 10.8443 33.6111 13.188L40.4061 6.39302C36.1035 2.35275 30.3929 0.131472 24.4812 0.201433C15.4824 0.201433 7.25316 5.27364 3.21289 13.3192L11.1185 19.4496C12.9987 13.8089 18.2721 9.61999 24.4812 9.61999Z" fill="#748745"/>
</g>
<defs>
<clipPath id="clip0_454_1155">
<rect width="47.6" height="47.6" fill="white" transform="translate(0.205078 0.199829)"/>
</clipPath>
</defs>
</svg>
