<svg width="181" height="181" viewBox="0 0 181 181" fill="none" xmlns="http://www.w3.org/2000/svg">
<path d="M89.512 1.30634C89.6886 0.179367 91.3114 0.179367 91.488 1.30634L99.5919 53.0361C99.7262 53.8932 100.813 54.1844 101.358 53.5094L134.241 12.762C134.958 11.8743 136.363 12.6857 135.952 13.75L117.106 62.6013C116.794 63.4106 117.589 64.2065 118.399 63.8942L167.25 45.0476C168.314 44.637 169.126 46.0424 168.238 46.7588L127.491 79.6419C126.816 80.1867 127.107 81.2738 127.964 81.4081L179.694 89.512C180.821 89.6886 180.821 91.3114 179.694 91.488L127.964 99.5919C127.107 99.7262 126.816 100.813 127.491 101.358L168.238 134.241C169.126 134.958 168.314 136.363 167.25 135.952L118.399 117.106C117.589 116.794 116.794 117.589 117.106 118.399L135.952 167.25C136.363 168.314 134.958 169.126 134.241 168.238L101.358 127.491C100.813 126.816 99.7262 127.107 99.5919 127.964L91.488 179.694C91.3114 180.821 89.6886 180.821 89.512 179.694L81.4081 127.964C81.2738 127.107 80.1867 126.816 79.6419 127.491L46.7588 168.238C46.0424 169.126 44.637 168.314 45.0476 167.25L63.8942 118.399C64.2065 117.589 63.4106 116.794 62.6013 117.106L13.75 135.952C12.6857 136.363 11.8743 134.958 12.762 134.241L53.5094 101.358C54.1844 100.813 53.8932 99.7262 53.0361 99.5919L1.30634 91.488C0.179367 91.3114 0.179367 89.6886 1.30634 89.512L53.0361 81.4081C53.8932 81.2738 54.1844 80.1867 53.5094 79.6419L12.762 46.7588C11.8743 46.0424 12.6857 44.637 13.75 45.0476L62.6013 63.8942C63.4106 64.2065 64.2065 63.4106 63.8942 62.6013L45.0476 13.75C44.637 12.6857 46.0424 11.8743 46.7588 12.762L79.6419 53.5094C80.1867 54.1844 81.2738 53.8932 81.4081 53.0361L89.512 1.30634Z" fill="#ECF3DA"/>
</svg>
