<svg width="85" height="85" viewBox="0 0 85 85" fill="none" xmlns="http://www.w3.org/2000/svg">
<path d="M42.5 0L45.172 26.4878L56.2997 2.30277L50.2263 28.223L68.604 8.96153L54.4434 31.5053L78.0796 19.2547L57.3663 35.9791L83.6995 32.0669L58.6781 41.1594L84.8548 46.0096L58.2368 46.4851L81.4204 59.5721L56.0902 51.3789L73.7683 71.2845L52.4709 55.3106L62.7278 79.8776L47.771 57.854L49.4953 84.4204L42.5 58.7336L35.5047 84.4204L37.229 57.854L22.2722 79.8776L32.5291 55.3106L11.2317 71.2845L28.9098 51.3789L3.57963 59.5721L26.7632 46.4851L0.145161 46.0096L26.3219 41.1594L1.30049 32.0669L27.6337 35.9791L6.92043 19.2547L30.5566 31.5053L16.396 8.96153L34.7737 28.223L28.7003 2.30277L39.828 26.4878L42.5 0Z" fill="#C0D58D"/>
</svg>
