<svg width="13" height="20" viewBox="0 0 13 20" fill="none" xmlns="http://www.w3.org/2000/svg">
<path fill-rule="evenodd" clip-rule="evenodd" d="M2.60426 12.2339C1.226 10.3805 0.0260053 8.76687 0.000461929 6.40135C-0.0361172 3.20067 2.10033 0 6.20863 0C10.0119 0 12.4233 3.20067 12.4233 6.40135C12.4233 8.71185 11.225 10.3249 9.84108 12.1879C8.49516 13.9997 6.97363 16.048 6.20787 19.204C5.44428 16.0529 3.94049 14.0308 2.60426 12.2339ZM6.26367 7.68408C7.36824 7.68408 8.26367 6.78865 8.26367 5.68408C8.26367 4.57951 7.36824 3.68408 6.26367 3.68408C5.1591 3.68408 4.26367 4.57951 4.26367 5.68408C4.26367 6.78865 5.1591 7.68408 6.26367 7.68408Z" fill="#33BB83"/>
</svg>
