<svg width="121" height="33" viewBox="0 0 121 33" fill="none" xmlns="http://www.w3.org/2000/svg">
<path d="M32.5433 17.6109H32.4763H30.8023C28.693 17.6778 25.0101 18.1131 22.0638 19.7871C18.5149 22.2982 16.1042 26.3494 15.9034 31.0032C15.669 31.0032 15.4346 31.0367 15.2337 31.0367C14.9994 31.0367 14.765 31.0367 14.5641 31.0032C14.2293 23.9053 8.83892 18.1131 1.9084 17.2426C1.9084 16.9747 1.87492 16.7069 1.87492 16.4725C1.87492 16.2047 1.87492 15.9368 1.9084 15.7025C8.83892 14.7985 14.2628 9.0398 14.5641 1.94188C14.7985 1.94188 15.0329 1.9084 15.2337 1.9084C15.4681 1.9084 15.669 1.9084 15.8699 1.94188C16.0373 5.42388 17.4435 8.53759 19.6197 10.9482C19.988 11.35 20.3563 11.7517 20.7915 12.0866C20.825 12.12 20.8585 12.1535 20.892 12.187C23.8383 14.3967 27.9564 14.8989 30.434 15.0329V14.5976C30.434 6.52875 23.9053 0 15.8699 0C15.8699 0 15.4346 0 15.2337 0C14.9994 0 14.5641 0 14.5641 0C6.52875 0 0 6.52875 0 14.5641V18.314C0 26.3494 6.52875 32.8781 14.5641 32.8781C14.5641 32.8781 14.9994 32.8781 15.2337 32.8781C15.4681 32.8781 15.9034 32.8781 15.9034 32.8781C23.5704 32.8781 29.7644 26.952 30.367 19.4523H33.3468V17.6109H32.5433Z" fill="#33BB83"/>
<path d="M47.643 19.8877C47.5091 21.3608 46.0694 22.3653 44.161 22.3653C41.6834 22.3653 39.9759 20.6243 39.9759 18.0462C39.9759 15.4682 41.6834 13.7272 44.228 13.7272C46.0694 13.7272 47.3752 14.6312 47.3752 15.9035C47.3752 16.1713 47.3082 16.5061 47.2078 16.8075L47.1743 17.0083H48.7814L48.8148 16.9079C48.9488 16.4726 49.0157 16.1378 49.0157 15.7696C49.0157 13.5933 47.0404 12.0867 44.161 12.0867C40.6121 12.0867 38.168 14.5308 38.168 18.0462C38.168 21.5617 40.6121 24.0393 44.0271 24.0393C46.9064 24.0393 49.0492 22.3318 49.2836 19.9212V19.7538H47.643V19.8877Z" fill="#084F32"/>
<path d="M59.5959 17.8454C60.3994 17.2762 60.8347 16.4057 60.8347 15.4013C60.8347 13.6268 59.3615 12.2876 57.3862 12.2876H51.0918V23.8719H57.8549C59.8638 23.8719 61.3369 22.5327 61.3369 20.6913C61.3369 19.4525 60.7008 18.4146 59.5959 17.8454ZM57.0848 17.2427H52.8328V13.7942H57.0848C58.2232 13.7942 59.0602 14.5308 59.0602 15.5352C59.0937 16.5397 58.2567 17.2427 57.0848 17.2427ZM52.8663 18.7159H57.5536C58.7589 18.7159 59.5959 19.4525 59.5959 20.5239C59.5959 21.5618 58.7589 22.3318 57.5536 22.3318H52.8663V18.7159Z" fill="#084F32"/>
<path d="M82.9985 12.2542H82.1949C81.3914 12.2542 80.6213 12.6894 80.2196 13.359L77.8759 16.6736C77.6416 17.0084 77.2733 17.2093 76.838 17.2093H75.7332V12.2876H74.0256V17.1758H72.9208C72.4855 17.1758 72.1172 16.9749 71.8829 16.6401L69.5392 13.359C69.1374 12.6894 68.3674 12.2542 67.5639 12.2542H66.7603V13.7943H67.0951C67.5638 13.7943 67.9321 13.9951 68.1665 14.3634L70.711 17.9124L67.7982 21.8296C67.5638 22.1979 67.1621 22.3988 66.7268 22.3988H66.459V23.9055H67.1621C67.9656 23.9055 68.7357 23.5037 69.1709 22.8341L71.8494 19.2516C72.1172 18.9168 72.519 18.6825 72.9208 18.6825H74.0591V23.8385H75.7666V18.7159H76.905C77.3067 18.7159 77.675 18.9168 77.9429 19.2516L80.6213 22.8341C81.0901 23.5037 81.8601 23.9055 82.6302 23.9055H83.3333V22.3988H83.032C82.5967 22.3988 82.1949 22.1979 81.9271 21.8296L79.0143 17.9124L81.5588 14.3634C81.7597 13.9951 82.1615 13.7943 82.5967 13.7943H82.965" fill="#084F32"/>
<path d="M62.3091 9.03992H61.7734V9.57561C61.7734 10.9818 62.9118 12.1201 64.2845 12.1536V12.4215C63.6149 12.6558 63.1127 13.292 63.1127 14.062V23.8719H64.8871V13.158V12.2875V12.1536V11.9527V11.6514C64.8871 10.2117 63.7153 9.03992 62.3091 9.03992Z" fill="#084F32"/>
<path d="M97.1615 19.7202C97.0275 21.0929 95.6883 22.0303 93.8803 22.0303C91.5367 22.0303 89.9631 20.3898 89.9631 17.9792C89.9631 15.5351 91.5702 13.8945 93.9808 13.8945C95.7218 13.8945 96.9271 14.7315 96.9271 15.9034C96.9271 16.1712 96.8601 16.4725 96.7932 16.7404L96.6927 17.0752H98.5007L98.5676 16.9078C98.7016 16.4725 98.7685 16.1377 98.7685 15.7694C98.7685 13.5932 96.7932 12.0865 93.9808 12.0865C90.4988 12.0865 88.0547 14.4972 88.0547 17.9792C88.0547 21.4612 90.4318 23.8718 93.8134 23.8718C96.6592 23.8718 98.802 22.1977 99.0029 19.7871L99.0364 19.4858H97.1949L97.1615 19.7202Z" fill="#084F32"/>
<path d="M99.3711 13.9615H103.791V23.671H105.699V13.9615H110.118V12.254H99.3711V13.9615Z" fill="#084F32"/>
<path d="M117.183 16.6065H113.333V12.254H111.391V23.7044H117.183C119.393 23.7044 121 22.1978 121 20.1555C121.033 18.1132 119.426 16.6065 117.183 16.6065ZM113.333 18.314H117.015C118.187 18.314 119.091 19.0841 119.091 20.1555C119.091 21.2269 118.221 21.9969 117.015 21.9969H113.333V18.314Z" fill="#084F32"/>
<path d="M86.4464 12.254H84.6719V23.8718H86.4464V12.254Z" fill="#084F32"/>
</svg>
