<svg width="45" height="44" viewBox="0 0 45 44" fill="none" xmlns="http://www.w3.org/2000/svg">
<path d="M43.9157 23.5682H43.8253H41.5663C38.7199 23.6578 33.75 24.2403 29.7741 26.4807C24.9849 29.8411 21.7319 35.2627 21.4608 41.4908C21.1446 41.4908 20.8283 41.5356 20.5572 41.5356C20.241 41.5356 19.9247 41.5356 19.6536 41.4908C19.2018 31.9919 11.9277 24.2403 2.5753 23.0754C2.5753 22.7169 2.53012 22.3585 2.53012 22.0448C2.53012 21.6864 2.53012 21.3279 2.5753 21.0143C11.9277 19.8045 19.247 12.0978 19.6536 2.59878C19.9699 2.59878 20.2861 2.55397 20.5572 2.55397C20.8735 2.55397 21.1446 2.55397 21.4157 2.59878C21.6416 7.25866 23.5392 11.4257 26.4759 14.6517C26.9729 15.1894 27.4699 15.7271 28.0572 16.1752C28.1024 16.22 28.1476 16.2648 28.1928 16.3096C32.1687 19.2668 37.7259 19.9389 41.0693 20.1181V19.5356C41.0693 8.73727 32.259 0 21.4157 0C21.4157 0 20.8283 0 20.5572 0C20.241 0 19.6536 0 19.6536 0C8.81024 0 0 8.73727 0 19.4908V24.5092C0 35.2627 8.81024 44 19.6536 44C19.6536 44 20.241 44 20.5572 44C20.8735 44 21.4608 44 21.4608 44C31.8072 44 40.1657 36.0692 40.9789 26.0326H45V23.5682H43.9157Z" fill="#33BB83"/>
</svg>
