<svg width="68" height="69" viewBox="0 0 68 69" fill="none" xmlns="http://www.w3.org/2000/svg">
<path d="M30.6137 6.0706L33.0325 6.70264L30.6137 6.0706L28.687 13.4441L23.5543 7.81059C21.1271 5.14654 16.7438 7.44712 17.5574 10.958L19.278 18.3823L12.1152 15.7794C8.72798 14.5484 5.91589 18.6225 8.26793 21.3531L13.2417 27.1274L5.6897 28.1513C2.1184 28.6355 1.52177 33.5498 4.87335 34.8746L11.9609 37.676L5.74974 42.0923L7.15628 44.0705L5.74974 42.0923C2.81256 44.1807 4.56799 48.8093 8.15134 48.4248L15.729 47.6116L12.2816 54.4084C10.6513 57.6226 14.3567 60.9053 17.3509 58.8995L23.6827 54.658L23.7888 62.2784C23.839 65.882 28.6455 67.0666 30.3646 63.8992L34 57.201L37.6354 63.8992C39.3545 67.0667 44.161 65.8819 44.2112 62.2784L44.3173 54.658L50.6491 58.8995C53.6433 60.9053 57.3486 57.6226 55.7184 54.4084L52.271 47.6116L59.8487 48.4248C63.432 48.8093 65.1874 44.1806 62.2503 42.0923L56.0391 37.676L63.1267 34.8746C66.4783 33.5498 65.8815 28.6355 62.3103 28.1513L54.7583 27.1274L59.7321 21.3531C62.0842 18.6225 59.272 14.5485 55.8848 15.7794L48.722 18.3823L50.4426 10.958C51.2562 7.44708 46.8729 5.14657 44.4457 7.8106L39.313 13.4441L37.3863 6.0706C36.4752 2.58371 31.5248 2.58377 30.6137 6.0706Z" fill="#9C45BA" stroke="#FDFFF8" stroke-width="5"/>
</svg>
