<svg width="68" height="68" viewBox="0 0 68 68" fill="none" xmlns="http://www.w3.org/2000/svg">
<path d="M29.8138 5.8002L32.1395 6.71743L29.8138 5.80021L27.4038 11.911C24.6085 18.9984 18.9984 24.6085 11.911 27.4038L5.80021 29.8138L6.71743 32.1395L5.8002 29.8138C2.00155 31.312 2.00155 36.688 5.8002 38.1862L11.911 40.5962C18.9984 43.3915 24.6085 49.0016 27.4038 56.089L29.8138 62.1998C31.312 65.9985 36.688 65.9984 38.1862 62.1998L40.5962 56.089C43.3915 49.0016 49.0016 43.3915 56.089 40.5962L62.1998 38.1862C65.9985 36.688 65.9984 31.312 62.1998 29.8138L56.089 27.4038C49.0016 24.6085 43.3915 18.9984 40.5962 11.911L38.1862 5.80021C36.688 2.00155 31.312 2.00155 29.8138 5.8002Z" fill="#33BB83" stroke="#FDFFF8" stroke-width="5"/>
</svg>
