<svg width="21" height="19" viewBox="0 0 21 19" fill="none" xmlns="http://www.w3.org/2000/svg">
<path d="M9.13941 0.786718C9.70634 -0.262238 11.2937 -0.26224 11.8606 0.786716L13.9817 4.71137C14.2037 5.12204 14.6202 5.40777 15.1024 5.48019L19.7108 6.17226C20.9425 6.35723 21.433 7.7827 20.5517 8.61596L17.2542 11.7336C16.9092 12.0598 16.7501 12.5221 16.8262 12.9776L17.5532 17.3299C17.7475 18.4932 16.4633 19.3742 15.3517 18.8402L11.1926 16.8424C10.7574 16.6333 10.2426 16.6333 9.80739 16.8424L5.64829 18.8402C4.53667 19.3742 3.2525 18.4932 3.44681 17.33L4.17383 12.9776C4.24991 12.5221 4.09082 12.0598 3.74578 11.7336L0.448287 8.61596C-0.433044 7.7827 0.0574648 6.35723 1.28917 6.17226L5.89761 5.48019C6.37982 5.40777 6.79632 5.12204 7.01827 4.71137L9.13941 0.786718Z" fill="#F7AA02"/>
</svg>
