<svg width="119" height="88" viewBox="0 0 119 88" fill="none" xmlns="http://www.w3.org/2000/svg">
<ellipse rx="52.5801" ry="24.4839" transform="matrix(-0.979082 0.203467 0.203467 0.979082 57.7222 46.0816)" fill="white" fill-opacity="0.3"/>
<path d="M9.97317 60.4603C12.4155 67.7319 20.0403 72.6113 30.609 74.5096C41.1573 76.4041 54.5146 75.2972 68.168 70.7114C81.8214 66.1256 93.1387 58.945 100.405 51.0672C107.685 43.1741 110.818 34.6813 108.376 27.4096C105.934 20.138 98.3088 15.2586 87.74 13.3604C77.1918 11.4658 63.8345 12.5727 50.1811 17.1585C36.5277 21.7443 25.2104 28.9249 17.9444 36.8027C10.6643 44.6959 7.53083 53.1887 9.97317 60.4603Z" stroke="#E0EDC1"/>
</svg>
