<?xml version="1.0" encoding="utf-8"?><svg viewBox="0 0 121 48" xmlns="http://www.w3.org/2000/svg" xmlns:xlink="http://www.w3.org/1999/xlink"><style>:root>svg{display:none}:root>svg:target{display:block}</style><svg fill="none" viewBox="0 0 121 33" id="Logo" xmlns="http://www.w3.org/2000/svg"><path d="M32.543 17.61H30.802c-2.109.068-5.792.503-8.738 2.177-3.55 2.511-5.96 6.562-6.16 11.216-.235 0-.47.034-.67.034-.235 0-.469 0-.67-.034-.335-7.098-5.725-12.89-12.656-13.76 0-.268-.033-.536-.033-.77 0-.268 0-.536.033-.77 6.93-.904 12.355-6.663 12.656-13.761.235 0 .469-.034.67-.034.234 0 .435 0 .636.034.167 3.482 1.574 6.596 3.75 9.006.368.402.736.804 1.171 1.139l.101.1c2.946 2.21 7.064 2.712 9.542 2.846v-.435C30.434 6.528 23.905 0 15.87 0h-1.306C6.53 0 0 6.529 0 14.564v3.75c0 8.035 6.529 14.564 14.564 14.564h1.34c7.666 0 13.86-5.926 14.463-13.426h2.98v-1.841h-.804z" fill="#33BB83"/><path d="M47.643 19.888c-.134 1.473-1.574 2.477-3.482 2.477-2.478 0-4.185-1.74-4.185-4.319 0-2.578 1.707-4.319 4.252-4.319 1.841 0 3.147.904 3.147 2.176 0 .268-.067.603-.167.905l-.034.2h1.607l.034-.1c.134-.435.2-.77.2-1.138 0-2.177-1.975-3.683-4.854-3.683-3.549 0-5.993 2.444-5.993 5.96 0 3.515 2.444 5.992 5.86 5.992 2.878 0 5.021-1.707 5.256-4.118v-.167h-1.641v.134zM59.596 17.845c.803-.569 1.239-1.44 1.239-2.444 0-1.774-1.474-3.113-3.449-3.113h-6.294v11.584h6.763c2.009 0 3.482-1.34 3.482-3.18 0-1.24-.636-2.277-1.741-2.847zm-2.511-.602h-4.252v-3.449h4.252c1.138 0 1.975.737 1.975 1.741.034 1.005-.803 1.708-1.975 1.708zm-4.219 1.473h4.688c1.205 0 2.042.736 2.042 1.808 0 1.038-.837 1.808-2.042 1.808h-4.688v-3.616zM82.999 12.254h-.804c-.804 0-1.574.435-1.975 1.105l-2.344 3.315a1.24 1.24 0 01-1.038.535h-1.105v-4.921h-1.707v4.888H72.92c-.436 0-.804-.201-1.038-.536l-2.344-3.281a2.334 2.334 0 00-1.975-1.105h-.804v1.54h.335c.469 0 .837.201 1.072.57l2.544 3.548-2.913 3.918c-.234.368-.636.569-1.071.569h-.268v1.506h.703c.804 0 1.574-.401 2.009-1.07l2.678-3.583c.268-.335.67-.57 1.072-.57h1.138v5.157h1.708v-5.123h1.138c.402 0 .77.2 1.038.536l2.678 3.582c.47.67 1.24 1.072 2.01 1.072h.702v-1.507h-.301c-.435 0-.837-.201-1.105-.57l-2.913-3.917 2.545-3.549c.2-.368.603-.569 1.038-.569h.368M62.31 9.04h-.537v.536a2.588 2.588 0 002.511 2.578v.268c-.67.234-1.171.87-1.171 1.64v9.81h1.774V11.65c0-1.44-1.172-2.611-2.578-2.611zM97.162 19.72c-.135 1.373-1.474 2.31-3.282 2.31-2.343 0-3.917-1.64-3.917-4.05 0-2.445 1.607-4.085 4.018-4.085 1.74 0 2.946.837 2.946 2.008 0 .268-.067.57-.134.837l-.1.335H98.5l.067-.167c.134-.436.2-.77.2-1.139 0-2.176-1.975-3.683-4.787-3.683-3.482 0-5.926 2.411-5.926 5.893 0 3.482 2.377 5.893 5.758 5.893 2.846 0 4.989-1.674 5.19-4.085l.033-.301h-1.841l-.033.234zM99.371 13.961h4.42v9.71h1.908v-9.71h4.419v-1.707H99.371v1.707zM117.183 16.607h-3.85v-4.353h-1.942v11.45h5.792c2.21 0 3.817-1.506 3.817-3.549.033-2.042-1.574-3.549-3.817-3.549zm-3.85 1.707h3.682c1.172 0 2.076.77 2.076 1.841 0 1.072-.87 1.842-2.076 1.842h-3.682v-3.683zM86.446 12.254h-1.774v11.618h1.774V12.254z" fill="#084F32"/></svg><svg fill="none" viewBox="0 0 21 18" id="arrow" xmlns="http://www.w3.org/2000/svg"><path fill-rule="evenodd" clip-rule="evenodd" d="M.332 7.507h15.47L8.664.423h3.46l8.42 8.402-8.418 8.399-3.408-.021 7.129-7.112H.332V7.507z" fill="#FDFFF8"/></svg><svg fill="none" viewBox="0 0 16 16" id="call" xmlns="http://www.w3.org/2000/svg"><path d="M15.602 13.078l-3.195-2.26c-.293-.195-.565-.272-.819-.234a.784.784 0 00-.486.312l-.897.896a1.23 1.23 0 01-.857.37c-.701.02-2.123-.175-3.799-1.694-1.5-1.676-1.714-3.098-1.695-3.8 0-.33.137-.623.37-.856l.897-.897c.078-.039.253-.214.311-.487.059-.253-.019-.526-.233-.818L2.939.415c-.04-.078-.234-.37-.565-.41-.273-.038-.565.118-.857.43-.234.214-3.527 3.428.39 9.292.31.468 1.11 1.52 1.986 2.396.8.819 1.734 1.52 2.143 1.812C8.296 15.513 10.186 16 11.647 16c2.435 0 3.78-1.364 3.916-1.5.33-.292.467-.565.428-.857-.02-.331-.311-.526-.39-.565z" fill="#33BB83"/></svg><svg fill="none" viewBox="0 0 32 32" id="fixed-phone" xmlns="http://www.w3.org/2000/svg"><path d="M30.387 25.672l-6.085-4.304c-.557-.371-1.076-.52-1.559-.445a1.493 1.493 0 00-.927.593l-1.707 1.707c-.446.446-1.04.706-1.633.706-1.336.037-4.045-.334-7.236-3.229-2.858-3.191-3.266-5.9-3.229-7.236 0-.63.26-1.187.706-1.633l1.707-1.707c.148-.074.482-.408.593-.927.112-.483-.037-1.002-.445-1.559L6.267 1.552c-.074-.148-.445-.705-1.076-.78C4.671.7 4.115.997 3.56 1.59c-.446.409-6.717 6.531.742 17.7.593.891 2.115 2.895 3.785 4.565 1.521 1.558 3.302 2.894 4.082 3.45 4.304 3.006 7.904 3.934 10.687 3.934 4.638 0 7.198-2.598 7.458-2.857.631-.557.89-1.076.817-1.633-.038-.63-.594-1.002-.743-1.076z" fill="#FDFFF8"/></svg><svg fill="none" viewBox="0 0 48 48" id="google" xmlns="http://www.w3.org/2000/svg"><g clip-path="url(#eclip0_454_1155)"><path d="M47.34 24.548c0-1.618-.13-3.244-.41-4.836H24.48v9.165h12.856a11.016 11.016 0 01-4.758 7.232v5.947h7.67c4.504-4.145 7.092-10.267 7.092-17.508z" fill="#748745"/><path d="M24.481 47.801c6.42 0 11.832-2.107 15.776-5.745l-7.67-5.947c-2.133 1.452-4.888 2.274-8.097 2.274-6.21 0-11.474-4.189-13.363-9.82H3.213v6.13A23.803 23.803 0 0024.48 47.8z" fill="#92A660"/><path d="M11.119 28.562a14.256 14.256 0 010-9.112v-6.13H3.213a23.82 23.82 0 000 21.372l7.906-6.13z" fill="#C0D58D"/><path d="M24.481 9.62a12.933 12.933 0 019.13 3.568l6.795-6.795A22.874 22.874 0 0024.481.201 23.795 23.795 0 003.213 13.32l7.905 6.13c1.88-5.64 7.154-9.829 13.363-9.829z" fill="#748745"/></g><defs><clipPath id="eclip0_454_1155"><path fill="#fff" transform="translate(.205 .2)" d="M0 0h47.6v47.6H0z"/></clipPath></defs></svg><svg fill="none" viewBox="0 0 13 20" id="location" xmlns="http://www.w3.org/2000/svg"><path fill-rule="evenodd" clip-rule="evenodd" d="M2.604 12.234C1.226 10.38.026 8.767 0 6.4-.036 3.201 2.1 0 6.21 0c3.803 0 6.214 3.2 6.214 6.401 0 2.31-1.198 3.924-2.582 5.787-1.346 1.812-2.867 3.86-3.633 7.016-.764-3.151-2.268-5.173-3.604-6.97zm3.66-4.55a2 2 0 100-4 2 2 0 000 4z" fill="#33BB83"/></svg><svg fill="none" viewBox="0 0 13 20" id="location-purlpe" xmlns="http://www.w3.org/2000/svg"><path fill-rule="evenodd" clip-rule="evenodd" d="M2.604 12.234C1.226 10.38.026 8.767 0 6.4-.036 3.201 2.1 0 6.21 0c3.803 0 6.214 3.2 6.214 6.401 0 2.31-1.198 3.924-2.582 5.787-1.346 1.812-2.867 3.86-3.633 7.016-.764-3.151-2.268-5.173-3.604-6.97zm3.66-4.55a2 2 0 100-4 2 2 0 000 4z" fill="#9C45BA"/></svg><svg fill="none" viewBox="0 0 45 44" id="logo-mobile" xmlns="http://www.w3.org/2000/svg"><path d="M43.916 23.568H41.566c-2.846.09-7.816.672-11.792 2.913-4.79 3.36-8.042 8.782-8.313 15.01-.316 0-.633.045-.904.045-.316 0-.632 0-.903-.045-.452-9.5-7.726-17.25-17.079-18.416 0-.358-.045-.716-.045-1.03 0-.359 0-.717.045-1.03 9.353-1.21 16.672-8.917 17.079-18.416.316 0 .632-.045.903-.045.317 0 .588 0 .859.045.226 4.66 2.123 8.827 5.06 12.053.497.537.994 1.075 1.581 1.523l.136.135c3.976 2.957 9.533 3.629 12.876 3.808v-.582C41.07 8.737 32.26 0 21.416 0h-1.762C8.81 0 0 8.737 0 19.49v5.02C0 35.262 8.81 44 19.654 44h1.807c10.346 0 18.705-7.93 19.518-17.967H45v-2.465h-1.084z" fill="#33BB83"/></svg><svg fill="none" viewBox="0 0 21 19" id="orange-star" xmlns="http://www.w3.org/2000/svg"><path d="M9.14.787c.566-1.05 2.154-1.05 2.72 0l2.122 3.924c.222.411.638.697 1.12.77l4.609.691c1.232.185 1.722 1.61.84 2.444l-3.297 3.118a1.393 1.393 0 00-.428 1.244l.727 4.352c.194 1.163-1.09 2.044-2.201 1.51l-4.16-1.998c-.435-.209-.95-.209-1.385 0L5.648 18.84c-1.111.534-2.395-.347-2.201-1.51l.727-4.352a1.393 1.393 0 00-.428-1.244L.448 8.616c-.881-.833-.39-2.259.841-2.444l4.609-.692a1.524 1.524 0 001.12-.769L9.14.787z" fill="#F7AA02"/></svg><svg fill="none" viewBox="0 0 10 10" id="star" xmlns="http://www.w3.org/2000/svg"><path d="M5 0l.965 4.035L10 5l-4.035.965L5 10l-.965-4.035L0 5l4.035-.965L5 0z" fill="#D6E3B5"/></svg></svg>